# xmcd
#
# Track frame offsets: 
#        150
#        19957
#        28936
#        46800
#        78536
#        84162
#        103632
#        123743
#        139986
#        161695
#
# Disc length: 2673 seconds
#
# Revision: 0
# Processed by: cddbd v1.5.2PL0 Copyright (c) Steve Scherf et al.
# Submitted via: ExactAudioCopy v0.99pb3
#
DISCID=810a6f0a
DTITLE=Meets Guitar - The River Turns To Home
DYEAR=2006
DGENRE=Unlabel
TTITLE0=I Feel Like The Ocean
TTITLE1=A River Turns
TTITLE2=Sunlight
TTITLE3=Rise To Meet Her
TTITLE4=Elder Winter
TTITLE5=Cast Out
TTITLE6=Lake Disappointment
TTITLE7=I Was A Mess Last Night
TTITLE8=Fade
TTITLE9=Content In Stone
EXTD=
EXTT0=
EXTT1=
EXTT2=
EXTT3=
EXTT4=
EXTT5=
EXTT6=
EXTT7=
EXTT8=
EXTT9=
PLAYORDER=
